# xmcd
#
# Track frame offsets:
#	150
#	16125
#	30000
#	41850
#	55350
#	66375
#	75600
#	88350
#	97575
#	110400
#	129600
#	139800
#	151575
#	161625
#	171300
#	183150
#
# Disc length: 2596 seconds
#
# Revision: 4
# Processed by: cddbd v1.5.2PL0 Copyright (c) Steve Scherf et al.
# Submitted via: audiograbber 1.83.01
#
DISCID=c70a2210
DTITLE=Various Artist - Country And Western Classics Vol 2 [CD1]
DYEAR=1985
DGENRE=Country
TTITLE0=Billie Jo Spears - Blanket On The Ground
TTITLE1=Roy Drusky - Vaya Con Dios
TTITLE2=Dean Martin - Houston
TTITLE3=Lee Marvin - Wandrin' Star
TTITLE4=Roger Miller - King Of The Road
TTITLE5=Jonny Cash - Luthers Boogie
TTITLE6=Don Williams - Some Broken Hearts Never Mind
TTITLE7=Carl Mann - South Of The Border
TTITLE8=Jonny Horton - North To Alaska
TTITLE9=Nancy Sinatra - Summerwine
TTITLE10=Charly Walker - Pick Me Up Your Way Down
TTITLE11=Glenn Campbell - Galveston
TTITLE12=Bob Luman - When You Say Love
TTITLE13=New Christie Minstrels - Green,green
TTITLE14=Tammy Wynette - When He Loves Me
TTITLE15=Billy Joe Royal - Down In The Boondocks
EXTD=Bellaphon, Germany
EXTT0=
EXTT1=
EXTT2=
EXTT3=
EXTT4=
EXTT5=
EXTT6=
EXTT7=
EXTT8=
EXTT9=
EXTT10=
EXTT11=
EXTT12=
EXTT13=
EXTT14=
EXTT15=
PLAYORDER=
